<?xml version="1.0" encoding="utf-8"?>
<!-- Generator: Adobe Illustrator 21.1.0, SVG Export Plug-In . SVG Version: 6.00 Build 0)  -->
<svg version="1.1" id="Layer_2" xmlns="http://www.w3.org/2000/svg" xmlns:xlink="http://www.w3.org/1999/xlink" x="0px" y="0px"
	 viewBox="0 0 395 229" style="enable-background:new 0 0 395 229;" xml:space="preserve">
<style type="text/css">
	.st0{fill:#A419F4;}
	.st1{fill:none;stroke:#FFFFFF;stroke-width:1.7391;stroke-miterlimit:10;}
	.st2{fill:none;stroke:#000000;stroke-width:1.7391;stroke-miterlimit:10;}
	.st3{stroke:#000000;stroke-width:0.4348;stroke-miterlimit:10;}
	.st4{font-family:'Helvetica';}
	.st5{font-size:13.9321px;}
	.st6{fill:#0CE5CF;}
</style>
<g>
	<path class="st0" d="M35.5,176.5c0.5-1.7,1.3-3.2,2.4-4.5c1.1-1.3,2.4-2.3,4-3c1.6-0.7,3.5-1.1,5.5-1.1c1.6,0,3.1,0.2,4.5,0.7
		s2.7,1.2,3.8,2.1c1.1,0.9,2,2.1,2.6,3.4s1,2.9,1,4.6c0,1.8-0.3,3.3-0.8,4.5c-0.6,1.3-1.3,2.4-2.2,3.4c-0.9,1-2,1.9-3.2,2.7
		c-1.2,0.8-2.4,1.6-3.6,2.4c-1.2,0.8-2.4,1.6-3.5,2.5c-1.1,0.9-2.1,1.9-3,3.1h16.5v6.1H34c0-2,0.3-3.8,0.9-5.3
		c0.6-1.5,1.4-2.8,2.4-4c1-1.2,2.2-2.3,3.5-3.3c1.3-1,2.8-2,4.3-3c0.8-0.5,1.6-1.1,2.4-1.6c0.9-0.5,1.6-1.2,2.4-1.8
		c0.7-0.7,1.3-1.4,1.8-2.2c0.5-0.8,0.7-1.8,0.7-2.8c0-1.7-0.5-3-1.5-4c-1-0.9-2.2-1.4-3.8-1.4c-1,0-1.9,0.2-2.6,0.7
		c-0.7,0.5-1.3,1.1-1.7,1.9c-0.4,0.8-0.7,1.6-0.9,2.6c-0.2,0.9-0.3,1.9-0.3,2.8h-6.8C34.7,180.1,34.9,178.2,35.5,176.5z"/>
	<path class="st0" d="M81.4,180.6c-1.4,2.3-2.6,4.8-3.5,7.4c-0.9,2.6-1.7,5.3-2.2,8c-0.5,2.7-0.8,5.2-0.8,7.5h-7.6
		c0.4-5.2,1.6-10.2,3.7-15c2-4.8,4.7-9.2,8-13.2H62.5v-6.6h23.8v6.1C84.5,176.3,82.8,178.3,81.4,180.6z"/>
	<path class="st0" d="M105.8,186.9v6.1h-15v-6.1H105.8z"/>
	<path class="st0" d="M138,200.8c-2.7,2.3-6.4,3.5-11.1,3.5c-4.8,0-8.5-1.2-11.2-3.5c-2.6-2.3-4-5.9-4-10.7V168h7.8v22.1
		c0,1,0.1,1.9,0.2,2.8c0.2,0.9,0.5,1.7,1,2.5c0.5,0.7,1.3,1.3,2.2,1.7c0.9,0.4,2.2,0.7,3.8,0.7c2.8,0,4.7-0.6,5.8-1.9
		c1.1-1.2,1.6-3.2,1.6-5.8V168h7.8v22.1C142,194.9,140.7,198.4,138,200.8z"/>
	<path class="st0" d="M156.5,168v14.7l13.9-14.7h9.7l-13.9,14l15.2,21.5h-9.8l-10.7-16l-4.5,4.5v11.4h-7.8V168H156.5z"/>
	<path class="st0" d="M204.4,194.7c0.4,0.8,1,1.5,1.7,2c0.7,0.5,1.5,0.9,2.5,1.1c1,0.2,2,0.4,3,0.4c0.7,0,1.4-0.1,2.2-0.2
		c0.8-0.1,1.5-0.3,2.2-0.7s1.3-0.8,1.7-1.4c0.5-0.6,0.7-1.3,0.7-2.2c0-1-0.3-1.7-0.9-2.3s-1.4-1.1-2.4-1.5c-1-0.4-2.1-0.7-3.4-1
		c-1.3-0.3-2.5-0.6-3.8-1c-1.3-0.3-2.6-0.7-3.9-1.2c-1.3-0.5-2.4-1.1-3.4-1.9c-1-0.8-1.8-1.7-2.4-2.9s-0.9-2.5-0.9-4.2
		c0-1.8,0.4-3.4,1.2-4.7c0.8-1.3,1.8-2.5,3.1-3.4c1.3-0.9,2.7-1.6,4.3-2c1.6-0.4,3.2-0.6,4.8-0.6c1.9,0,3.6,0.2,5.3,0.6
		c1.7,0.4,3.2,1.1,4.5,2c1.3,0.9,2.4,2.1,3.2,3.6s1.2,3.2,1.2,5.2h-7.6c-0.1-1.1-0.3-1.9-0.7-2.6c-0.4-0.7-0.9-1.2-1.5-1.6
		c-0.6-0.4-1.4-0.7-2.2-0.8c-0.8-0.2-1.7-0.2-2.7-0.2c-0.6,0-1.3,0.1-1.9,0.2c-0.6,0.1-1.2,0.4-1.7,0.7c-0.5,0.3-0.9,0.7-1.3,1.2
		c-0.3,0.5-0.5,1.1-0.5,1.9c0,0.7,0.1,1.3,0.4,1.7c0.3,0.4,0.8,0.8,1.6,1.2c0.8,0.4,1.9,0.7,3.2,1.1c1.4,0.4,3.2,0.8,5.4,1.4
		c0.7,0.1,1.6,0.4,2.8,0.7c1.2,0.3,2.3,0.9,3.5,1.7c1.2,0.8,2.2,1.8,3,3.1c0.8,1.3,1.3,2.9,1.3,4.9c0,1.6-0.3,3.1-0.9,4.5
		c-0.6,1.4-1.6,2.6-2.8,3.6c-1.2,1-2.8,1.8-4.6,2.4s-4,0.8-6.4,0.8c-2,0-3.9-0.2-5.7-0.7c-1.8-0.5-3.5-1.2-4.9-2.3s-2.5-2.3-3.4-3.9
		c-0.8-1.6-1.2-3.5-1.2-5.7h7.6C203.8,192.9,204,193.9,204.4,194.7z"/>
	<path class="st0" d="M228,174.5V168H257v6.6h-10.6v28.9h-7.8v-28.9H228z"/>
	<path class="st0" d="M287.2,200.8c-2.7,2.3-6.4,3.5-11.1,3.5c-4.8,0-8.5-1.2-11.2-3.5c-2.6-2.3-4-5.9-4-10.7V168h7.8v22.1
		c0,1,0.1,1.9,0.2,2.8c0.2,0.9,0.5,1.7,1,2.5s1.3,1.3,2.2,1.7c0.9,0.4,2.2,0.7,3.8,0.7c2.8,0,4.7-0.6,5.8-1.9
		c1.1-1.2,1.6-3.2,1.6-5.8V168h7.8v22.1C291.3,194.9,289.9,198.4,287.2,200.8z"/>
	<path class="st0" d="M313.3,168c2.3,0,4.4,0.4,6.4,1.1c2,0.7,3.7,1.8,5.1,3.3c1.4,1.5,2.6,3.3,3.4,5.5c0.8,2.2,1.2,4.8,1.2,7.7
		c0,2.6-0.3,5-1,7.2c-0.7,2.2-1.7,4.1-3,5.7c-1.3,1.6-3,2.8-5,3.8s-4.4,1.4-7.1,1.4H298V168H313.3z M312.7,196.9
		c1.1,0,2.2-0.2,3.3-0.5c1.1-0.4,2-1,2.8-1.8c0.8-0.8,1.5-1.9,2-3.3s0.7-3,0.7-5c0-1.8-0.2-3.4-0.5-4.8c-0.3-1.4-0.9-2.7-1.7-3.7
		c-0.8-1-1.8-1.8-3.2-2.4c-1.3-0.5-2.9-0.8-4.8-0.8h-5.6v22.4H312.7z"/>
	<path class="st0" d="M342.6,168v35.5h-7.8V168H342.6z"/>
	<path class="st0" d="M349.1,178.5c0.8-2.3,1.9-4.3,3.4-5.9c1.5-1.7,3.3-3,5.5-4c2.2-1,4.6-1.4,7.3-1.4c2.8,0,5.2,0.5,7.4,1.4
		c2.2,1,4,2.3,5.5,4c1.5,1.7,2.6,3.7,3.4,5.9s1.2,4.7,1.2,7.4c0,2.6-0.4,5-1.2,7.2c-0.8,2.2-1.9,4.2-3.4,5.8c-1.5,1.7-3.3,3-5.5,3.9
		c-2.2,0.9-4.6,1.4-7.4,1.4c-2.7,0-5.2-0.5-7.3-1.4c-2.2-0.9-4-2.2-5.5-3.9c-1.5-1.7-2.6-3.6-3.4-5.8c-0.8-2.2-1.2-4.6-1.2-7.2
		C347.9,183.2,348.3,180.8,349.1,178.5z M356.3,190.2c0.3,1.4,0.9,2.7,1.7,3.8c0.8,1.1,1.8,2,3,2.7c1.2,0.7,2.7,1,4.5,1
		c1.8,0,3.2-0.3,4.5-1c1.2-0.7,2.2-1.6,3-2.7c0.8-1.1,1.3-2.4,1.7-3.8c0.3-1.4,0.5-2.9,0.5-4.4c0-1.6-0.2-3.1-0.5-4.5
		c-0.3-1.5-0.9-2.8-1.7-3.9c-0.8-1.1-1.8-2.1-3-2.7c-1.2-0.7-2.7-1-4.5-1c-1.8,0-3.2,0.3-4.5,1s-2.2,1.6-3,2.7
		c-0.8,1.1-1.3,2.4-1.7,3.9c-0.3,1.5-0.5,3-0.5,4.5C355.7,187.4,355.9,188.8,356.3,190.2z"/>
</g>
<polygon points="29.1,26.2 28.8,169 94.9,103.2 "/>
<polyline class="st1" points="59.4,137.7 23,97.2 63.4,65.8 "/>
<line class="st2" x1="63.1" y1="65.8" x2="78.9" y2="53.2"/>
<line class="st2" x1="78.8" y1="156.5" x2="60" y2="138.1"/>
<g>
	<polygon class="st2" points="328.3,64.8 354,79.6 354.4,108.8 329.6,124.5 302,110.1 301.6,78.9 	"/>
	<polyline class="st2" points="122.9,76 96.2,90.1 149,120 96.6,121.3 	"/>
	<polyline class="st2" points="132.5,75.8 159.3,61.7 184.9,76.5 	"/>
	<path class="st2" d="M140.6,73.4"/>
	<line class="st2" x1="159.3" y1="61.7" x2="159.4" y2="121.4"/>
	<polyline class="st2" points="174,80.8 174.5,112.1 202.1,126.4 226.9,110.8 226.4,81.5 	"/>
	<polyline class="st2" points="286.1,78.9 234.1,109.4 261.7,123.8 286.5,108.1 286.1,78.9 260.4,64.1 	"/>
	<line class="st2" x1="295.9" y1="63.2" x2="296.1" y2="122.8"/>
</g>
<text transform="matrix(1 0 0 1 353.2119 70.3896)" class="st3 st4 st5">R</text>
<circle class="st2" cx="358.1" cy="65.7" r="8.3"/>
<g>
	<path class="st6" d="M32,176c0.5-1.7,1.3-3.2,2.4-4.5c1.1-1.3,2.4-2.3,4-3c1.6-0.7,3.5-1.1,5.5-1.1c1.6,0,3.1,0.2,4.5,0.7
		s2.7,1.2,3.8,2.1c1.1,0.9,2,2.1,2.6,3.4s1,2.9,1,4.6c0,1.8-0.3,3.3-0.8,4.5c-0.6,1.3-1.3,2.4-2.2,3.4c-0.9,1-2,1.9-3.2,2.7
		c-1.2,0.8-2.4,1.6-3.6,2.4c-1.2,0.8-2.4,1.6-3.5,2.5c-1.1,0.9-2.1,1.9-3,3.1H56v6.1H30.5c0-2,0.3-3.8,0.9-5.3
		c0.6-1.5,1.4-2.8,2.4-4c1-1.2,2.2-2.3,3.5-3.3c1.3-1,2.8-2,4.3-3c0.8-0.5,1.6-1.1,2.4-1.6c0.9-0.5,1.6-1.2,2.4-1.8
		c0.7-0.7,1.3-1.4,1.8-2.2c0.5-0.8,0.7-1.8,0.7-2.8c0-1.7-0.5-3-1.5-4c-1-0.9-2.2-1.4-3.8-1.4c-1,0-1.9,0.2-2.6,0.7
		c-0.7,0.5-1.3,1.1-1.7,1.9c-0.4,0.8-0.7,1.6-0.9,2.6c-0.2,0.9-0.3,1.9-0.3,2.8h-6.8C31.2,179.6,31.4,177.7,32,176z"/>
	<path class="st6" d="M77.9,180.1c-1.4,2.3-2.6,4.8-3.5,7.4c-0.9,2.6-1.7,5.3-2.2,8c-0.5,2.7-0.8,5.2-0.8,7.5h-7.6
		c0.4-5.2,1.6-10.2,3.7-15c2-4.8,4.7-9.2,8-13.2H59v-6.6h23.8v6.1C81,175.8,79.3,177.8,77.9,180.1z"/>
	<path class="st6" d="M102.3,186.4v6.1h-15v-6.1H102.3z"/>
	<path class="st6" d="M134.5,200.3c-2.7,2.3-6.4,3.5-11.1,3.5c-4.8,0-8.5-1.2-11.2-3.5c-2.6-2.3-4-5.9-4-10.7v-22.1h7.8v22.1
		c0,1,0.1,1.9,0.2,2.8c0.2,0.9,0.5,1.7,1,2.5c0.5,0.7,1.3,1.3,2.2,1.7c0.9,0.4,2.2,0.7,3.8,0.7c2.8,0,4.7-0.6,5.8-1.9
		c1.1-1.2,1.6-3.2,1.6-5.8v-22.1h7.8v22.1C138.5,194.4,137.2,197.9,134.5,200.3z"/>
	<path class="st6" d="M153,167.5v14.7l13.9-14.7h9.7l-13.9,14L178,203h-9.8l-10.7-16l-4.5,4.5V203h-7.8v-35.5H153z"/>
	<path class="st6" d="M200.9,194.2c0.4,0.8,1,1.5,1.7,2c0.7,0.5,1.5,0.9,2.5,1.1c1,0.2,2,0.4,3,0.4c0.7,0,1.4-0.1,2.2-0.2
		c0.8-0.1,1.5-0.3,2.2-0.7s1.3-0.8,1.7-1.4c0.5-0.6,0.7-1.3,0.7-2.2c0-1-0.3-1.7-0.9-2.3s-1.4-1.1-2.4-1.5c-1-0.4-2.1-0.7-3.4-1
		c-1.3-0.3-2.5-0.6-3.8-1c-1.3-0.3-2.6-0.7-3.9-1.2c-1.3-0.5-2.4-1.1-3.4-1.9c-1-0.8-1.8-1.7-2.4-2.9s-0.9-2.5-0.9-4.2
		c0-1.8,0.4-3.4,1.2-4.7c0.8-1.3,1.8-2.5,3.1-3.4c1.3-0.9,2.7-1.6,4.3-2c1.6-0.4,3.2-0.6,4.8-0.6c1.9,0,3.6,0.2,5.3,0.6
		c1.7,0.4,3.2,1.1,4.5,2c1.3,0.9,2.4,2.1,3.2,3.6s1.2,3.2,1.2,5.2h-7.6c-0.1-1.1-0.3-1.9-0.7-2.6c-0.4-0.7-0.9-1.2-1.5-1.6
		c-0.6-0.4-1.4-0.7-2.2-0.8c-0.8-0.2-1.7-0.2-2.7-0.2c-0.6,0-1.3,0.1-1.9,0.2c-0.6,0.1-1.2,0.4-1.7,0.7c-0.5,0.3-0.9,0.7-1.3,1.2
		c-0.3,0.5-0.5,1.1-0.5,1.9c0,0.7,0.1,1.3,0.4,1.7c0.3,0.4,0.8,0.8,1.6,1.2c0.8,0.4,1.9,0.7,3.2,1.1c1.4,0.4,3.2,0.8,5.4,1.4
		c0.7,0.1,1.6,0.4,2.8,0.7c1.2,0.3,2.3,0.9,3.5,1.7c1.2,0.8,2.2,1.8,3,3.1c0.8,1.3,1.3,2.9,1.3,4.9c0,1.6-0.3,3.1-0.9,4.5
		c-0.6,1.4-1.6,2.6-2.8,3.6c-1.2,1-2.8,1.8-4.6,2.4s-4,0.8-6.4,0.8c-2,0-3.9-0.2-5.7-0.7c-1.8-0.5-3.5-1.2-4.9-2.3s-2.5-2.3-3.4-3.9
		c-0.8-1.6-1.2-3.5-1.2-5.7h7.6C200.3,192.4,200.5,193.4,200.9,194.2z"/>
	<path class="st6" d="M224.5,174v-6.6h29.1v6.6h-10.6V203h-7.8V174H224.5z"/>
	<path class="st6" d="M283.7,200.3c-2.7,2.3-6.4,3.5-11.1,3.5c-4.8,0-8.5-1.2-11.2-3.5c-2.6-2.3-4-5.9-4-10.7v-22.1h7.8v22.1
		c0,1,0.1,1.9,0.2,2.8c0.2,0.9,0.5,1.7,1,2.5s1.3,1.3,2.2,1.7c0.9,0.4,2.2,0.7,3.8,0.7c2.8,0,4.7-0.6,5.8-1.9
		c1.1-1.2,1.6-3.2,1.6-5.8v-22.1h7.8v22.1C287.8,194.4,286.4,197.9,283.7,200.3z"/>
	<path class="st6" d="M309.8,167.5c2.3,0,4.4,0.4,6.4,1.1c2,0.7,3.7,1.8,5.1,3.3c1.4,1.5,2.6,3.3,3.4,5.5c0.8,2.2,1.2,4.8,1.2,7.7
		c0,2.6-0.3,5-1,7.2c-0.7,2.2-1.7,4.1-3,5.7c-1.3,1.6-3,2.8-5,3.8s-4.4,1.4-7.1,1.4h-15.3v-35.5H309.8z M309.2,196.4
		c1.1,0,2.2-0.2,3.3-0.5c1.1-0.4,2-1,2.8-1.8c0.8-0.8,1.5-1.9,2-3.3s0.7-3,0.7-5c0-1.8-0.2-3.4-0.5-4.8c-0.3-1.4-0.9-2.7-1.7-3.7
		c-0.8-1-1.8-1.8-3.2-2.4c-1.3-0.5-2.9-0.8-4.8-0.8h-5.6v22.4H309.2z"/>
	<path class="st6" d="M339.1,167.5V203h-7.8v-35.5H339.1z"/>
	<path class="st6" d="M345.6,178c0.8-2.3,1.9-4.3,3.4-5.9c1.5-1.7,3.3-3,5.5-4c2.2-1,4.6-1.4,7.3-1.4c2.8,0,5.2,0.5,7.4,1.4
		c2.2,1,4,2.3,5.5,4c1.5,1.7,2.6,3.7,3.4,5.9s1.2,4.7,1.2,7.4c0,2.6-0.4,5-1.2,7.2c-0.8,2.2-1.9,4.2-3.4,5.8c-1.5,1.7-3.3,3-5.5,3.9
		c-2.2,0.9-4.6,1.4-7.4,1.4c-2.7,0-5.2-0.5-7.3-1.4c-2.2-0.9-4-2.2-5.5-3.9c-1.5-1.7-2.6-3.6-3.4-5.8c-0.8-2.2-1.2-4.6-1.2-7.2
		C344.4,182.7,344.8,180.3,345.6,178z M352.8,189.7c0.3,1.4,0.9,2.7,1.7,3.8c0.8,1.1,1.8,2,3,2.7c1.2,0.7,2.7,1,4.5,1
		c1.8,0,3.2-0.3,4.5-1c1.2-0.7,2.2-1.6,3-2.7c0.8-1.1,1.3-2.4,1.7-3.8c0.3-1.4,0.5-2.9,0.5-4.4c0-1.6-0.2-3.1-0.5-4.5
		c-0.3-1.5-0.9-2.8-1.7-3.9c-0.8-1.1-1.8-2.1-3-2.7c-1.2-0.7-2.7-1-4.5-1c-1.8,0-3.2,0.3-4.5,1s-2.2,1.6-3,2.7
		c-0.8,1.1-1.3,2.4-1.7,3.9c-0.3,1.5-0.5,3-0.5,4.5C352.2,186.9,352.4,188.3,352.8,189.7z"/>
</g>
</svg>
